<?xml version="1.0" encoding="UTF-8" standalone="no"?>
<svg
   xmlns:dc="http://purl.org/dc/elements/1.1/"
   xmlns:cc="http://creativecommons.org/ns#"
   xmlns:rdf="http://www.w3.org/1999/02/22-rdf-syntax-ns#"
   xmlns:svg="http://www.w3.org/2000/svg"
   xmlns="http://www.w3.org/2000/svg"
   xmlns:sodipodi="http://sodipodi.sourceforge.net/DTD/sodipodi-0.dtd"
   xmlns:inkscape="http://www.inkscape.org/namespaces/inkscape"
   width="40"
   height="40"
   viewBox="0 0 10.583333 10.583333"
   version="1.1"
   id="svg8"
   inkscape:version="1.0.2-2 (e86c870879, 2021-01-15)"
   sodipodi:docname="instagram_icon.svg">
  <defs
     id="defs2">
    <filter
       style="color-interpolation-filters:sRGB"
       inkscape:label="Drop Shadow"
       id="filter6864">
      <feFlood
         flood-opacity="0.580392"
         flood-color="rgb(0,0,0)"
         result="flood"
         id="feFlood6854" />
      <feComposite
         in="flood"
         in2="SourceGraphic"
         operator="out"
         result="composite1"
         id="feComposite6856" />
      <feGaussianBlur
         in="composite1"
         stdDeviation="2.99401"
         result="blur"
         id="feGaussianBlur6858" />
      <feOffset
         dx="0"
         dy="-1.1976"
         result="offset"
         id="feOffset6860" />
      <feComposite
         in="offset"
         in2="SourceGraphic"
         operator="atop"
         result="composite2"
         id="feComposite6862" />
    </filter>
    <filter
       style="color-interpolation-filters:sRGB"
       inkscape:label="Drop Shadow"
       id="filter6876">
      <feFlood
         flood-opacity="0.580392"
         flood-color="rgb(0,0,0)"
         result="flood"
         id="feFlood6866" />
      <feComposite
         in="flood"
         in2="SourceGraphic"
         operator="out"
         result="composite1"
         id="feComposite6868" />
      <feGaussianBlur
         in="composite1"
         stdDeviation="2.99401"
         result="blur"
         id="feGaussianBlur6870" />
      <feOffset
         dx="0"
         dy="-1.1976"
         result="offset"
         id="feOffset6872" />
      <feComposite
         in="offset"
         in2="SourceGraphic"
         operator="atop"
         result="composite2"
         id="feComposite6874" />
    </filter>
    <filter
       style="color-interpolation-filters:sRGB"
       inkscape:label="Drop Shadow"
       id="filter6888">
      <feFlood
         flood-opacity="0.580392"
         flood-color="rgb(0,0,0)"
         result="flood"
         id="feFlood6878" />
      <feComposite
         in="flood"
         in2="SourceGraphic"
         operator="out"
         result="composite1"
         id="feComposite6880" />
      <feGaussianBlur
         in="composite1"
         stdDeviation="2.99401"
         result="blur"
         id="feGaussianBlur6882" />
      <feOffset
         dx="0"
         dy="-1.1976"
         result="offset"
         id="feOffset6884" />
      <feComposite
         in="offset"
         in2="SourceGraphic"
         operator="atop"
         result="composite2"
         id="feComposite6886" />
    </filter>
    <radialGradient
       id="paint0_radial_87_7153"
       cx="0"
       cy="0"
       r="1"
       gradientUnits="userSpaceOnUse"
       gradientTransform="matrix(14.500016,-20.999988,20.999988,14.500016,12,23)">
      <stop
         stop-color="#B13589"
         id="stop497" />
      <stop
         offset="0.79309"
         stop-color="#C62F94"
         id="stop499" />
      <stop
         offset="1"
         stop-color="#8A3AC8"
         id="stop501" />
    </radialGradient>
    <radialGradient
       id="paint1_radial_87_7153"
       cx="0"
       cy="0"
       r="1"
       gradientUnits="userSpaceOnUse"
       gradientTransform="matrix(9.4999814,-20.499957,20.499957,9.4999814,11,31)">
      <stop
         stop-color="#E0E8B7"
         id="stop504" />
      <stop
         offset="0.444662"
         stop-color="#FB8A2E"
         id="stop506" />
      <stop
         offset="0.71474"
         stop-color="#E2425C"
         id="stop508" />
      <stop
         offset="1"
         stop-color="#E2425C"
         stop-opacity="0"
         id="stop510" />
    </radialGradient>
    <radialGradient
       id="paint2_radial_87_7153"
       cx="0"
       cy="0"
       r="1"
       gradientUnits="userSpaceOnUse"
       gradientTransform="matrix(38.500027,-5.5000022,1.1763934,8.2347563,0.500002,3)">
      <stop
         offset="0.156701"
         stop-color="#406ADC"
         id="stop513" />
      <stop
         offset="0.467799"
         stop-color="#6A45BE"
         id="stop515" />
      <stop
         offset="1"
         stop-color="#6A45BE"
         stop-opacity="0"
         id="stop517" />
    </radialGradient>
  </defs>
  <sodipodi:namedview
     id="base"
     pagecolor="#ffffff"
     bordercolor="#666666"
     borderopacity="1.0"
     inkscape:pageopacity="0.0"
     inkscape:pageshadow="2"
     inkscape:zoom="5.6568543"
     inkscape:cx="34.60724"
     inkscape:cy="30.898757"
     inkscape:document-units="mm"
     inkscape:current-layer="layer1"
     inkscape:document-rotation="0"
     showgrid="false"
     units="px"
     inkscape:window-width="1507"
     inkscape:window-height="1040"
     inkscape:window-x="2050"
     inkscape:window-y="0"
     inkscape:window-maximized="0" />
  <metadata
     id="metadata5">
    <rdf:RDF>
      <cc:Work
         rdf:about="">
        <dc:format>image/svg+xml</dc:format>
        <dc:type
           rdf:resource="http://purl.org/dc/dcmitype/StillImage" />
        <dc:title></dc:title>
      </cc:Work>
    </rdf:RDF>
  </metadata>
  <g
     inkscape:label="Livello 1"
     inkscape:groupmode="layer"
     id="layer1">
    <g
       style="fill:none;filter:url(#filter6888)"
       id="g547"
       transform="matrix(0.37797618,0,0,0.37797618,-0.75425264,-0.75491896)">
      <rect
         x="2"
         y="2"
         width="28"
         height="28"
         rx="6"
         fill="url(#paint0_radial_87_7153)"
         id="rect485"
         style="fill:url(#paint0_radial_87_7153)" />
      <rect
         x="2"
         y="2"
         width="28"
         height="28"
         rx="6"
         fill="url(#paint1_radial_87_7153)"
         id="rect487"
         style="fill:url(#paint1_radial_87_7153)" />
      <rect
         x="2"
         y="2"
         width="28"
         height="28"
         rx="6"
         fill="url(#paint2_radial_87_7153)"
         id="rect489"
         style="fill:url(#paint2_radial_87_7153)" />
      <path
         d="M 23,10.5 C 23,11.3284 22.3284,12 21.5,12 20.6716,12 20,11.3284 20,10.5 20,9.67157 20.6716,9 21.5,9 22.3284,9 23,9.67157 23,10.5 Z"
         fill="#ffffff"
         id="path491" />
      <path
         fill-rule="evenodd"
         clip-rule="evenodd"
         d="m 16,21 c 2.7614,0 5,-2.2386 5,-5 0,-2.7614 -2.2386,-5 -5,-5 -2.7614,0 -5,2.2386 -5,5 0,2.7614 2.2386,5 5,5 z m 0,-2 c 1.6569,0 3,-1.3431 3,-3 0,-1.6569 -1.3431,-3 -3,-3 -1.6569,0 -3,1.3431 -3,3 0,1.6569 1.3431,3 3,3 z"
         fill="#ffffff"
         id="path493" />
      <path
         fill-rule="evenodd"
         clip-rule="evenodd"
         d="M 6,15.6 C 6,12.2397 6,10.5595 6.65396,9.27606 7.2292,8.14708 8.14708,7.2292 9.27606,6.65396 10.5595,6 12.2397,6 15.6,6 h 0.8 c 3.3603,0 5.0405,0 6.3239,0.65396 1.129,0.57524 2.0469,1.49312 2.6221,2.6221 C 26,10.5595 26,12.2397 26,15.6 v 0.8 c 0,3.3603 0,5.0405 -0.654,6.3239 -0.5752,1.129 -1.4931,2.0469 -2.6221,2.6221 C 21.4405,26 19.7603,26 16.4,26 H 15.6 C 12.2397,26 10.5595,26 9.27606,25.346 8.14708,24.7708 7.2292,23.8529 6.65396,22.7239 6,21.4405 6,19.7603 6,16.4 Z M 15.6,8 h 0.8 c 1.7132,0 2.8777,0.00156 3.7779,0.0751 0.8769,0.07164 1.3253,0.20149 1.6381,0.36087 0.7526,0.3835 1.3645,0.99542 1.748,1.74803 0.1594,0.3128 0.2893,0.7612 0.3609,1.6381 C 23.9984,12.7223 24,13.8868 24,15.6 v 0.8 c 0,1.7132 -0.0016,2.8777 -0.0751,3.7779 -0.0716,0.8769 -0.2015,1.3253 -0.3609,1.6381 -0.3835,0.7526 -0.9954,1.3645 -1.748,1.748 -0.3128,0.1594 -0.7612,0.2893 -1.6381,0.3609 C 19.2777,23.9984 18.1132,24 16.4,24 H 15.6 C 13.8868,24 12.7223,23.9984 11.8221,23.9249 10.9452,23.8533 10.4968,23.7234 10.184,23.564 9.43139,23.1805 8.81947,22.5686 8.43597,21.816 8.27659,21.5032 8.14674,21.0548 8.0751,20.1779 8.00156,19.2777 8,18.1132 8,16.4 V 15.6 C 8,13.8868 8.00156,12.7223 8.0751,11.8221 8.14674,10.9452 8.27659,10.4968 8.43597,10.184 8.81947,9.43139 9.43139,8.81947 10.184,8.43597 10.4968,8.27659 10.9452,8.14674 11.8221,8.0751 12.7223,8.00156 13.8868,8 15.6,8 Z"
         fill="#ffffff"
         id="path495" />
    </g>
  </g>
</svg>
