<?xml version="1.0" encoding="UTF-8" standalone="no"?>
<svg
   xmlns:dc="http://purl.org/dc/elements/1.1/"
   xmlns:cc="http://creativecommons.org/ns#"
   xmlns:rdf="http://www.w3.org/1999/02/22-rdf-syntax-ns#"
   xmlns:svg="http://www.w3.org/2000/svg"
   xmlns="http://www.w3.org/2000/svg"
   xmlns:sodipodi="http://sodipodi.sourceforge.net/DTD/sodipodi-0.dtd"
   xmlns:inkscape="http://www.inkscape.org/namespaces/inkscape"
   width="40"
   height="40"
   viewBox="0 0 10.583333 10.583333"
   version="1.1"
   id="svg8"
   inkscape:version="1.0.2-2 (e86c870879, 2021-01-15)"
   sodipodi:docname="planetminecraft_icon.svg">
  <defs
     id="defs2">
    <filter
       style="color-interpolation-filters:sRGB"
       inkscape:label="Drop Shadow"
       id="filter6864">
      <feFlood
         flood-opacity="0.580392"
         flood-color="rgb(0,0,0)"
         result="flood"
         id="feFlood6854" />
      <feComposite
         in="flood"
         in2="SourceGraphic"
         operator="out"
         result="composite1"
         id="feComposite6856" />
      <feGaussianBlur
         in="composite1"
         stdDeviation="2.99401"
         result="blur"
         id="feGaussianBlur6858" />
      <feOffset
         dx="0"
         dy="-1.1976"
         result="offset"
         id="feOffset6860" />
      <feComposite
         in="offset"
         in2="SourceGraphic"
         operator="atop"
         result="composite2"
         id="feComposite6862" />
    </filter>
  </defs>
  <sodipodi:namedview
     id="base"
     pagecolor="#ffffff"
     bordercolor="#666666"
     borderopacity="1.0"
     inkscape:pageopacity="0.0"
     inkscape:pageshadow="2"
     inkscape:zoom="8"
     inkscape:cx="37.659325"
     inkscape:cy="22.968885"
     inkscape:document-units="mm"
     inkscape:current-layer="layer1"
     inkscape:document-rotation="0"
     showgrid="false"
     units="px"
     inkscape:window-width="1507"
     inkscape:window-height="1040"
     inkscape:window-x="2050"
     inkscape:window-y="0"
     inkscape:window-maximized="0" />
  <metadata
     id="metadata5">
    <rdf:RDF>
      <cc:Work
         rdf:about="">
        <dc:format>image/svg+xml</dc:format>
        <dc:type
           rdf:resource="http://purl.org/dc/dcmitype/StillImage" />
        <dc:title></dc:title>
      </cc:Work>
    </rdf:RDF>
  </metadata>
  <g
     inkscape:label="Livello 1"
     inkscape:groupmode="layer"
     id="layer1">
    <g
       id="g322"
       transform="matrix(0.18898809,0,0,0.18247126,0.00157358,4.2981135e-4)"
       style="filter:url(#filter6864)">
      <g
         id="water">
        <path
           d="m 0,38 v -2 h 19 v 2 h 33 v 9 h -1 v 1 h -1 v 1 h -3 v 2 h -1 v 1 h -1 v 1 h -1 v 1 h -6 v 2 h -1 v 1 h -1 v 1 H 20 V 57 H 19 V 56 H 18 V 54 H 11 V 53 H 10 V 52 H 9 V 51 H 8 V 49 H 6 V 48 H 5 V 47 H 4 V 40 H 2 V 39 H 1 v -1 z"
           fill="#012647"
           id="path164" />
        <path
           d="M 9,4 H 46 V 45 H 9 Z"
           fill="#278eed"
           id="path166" />
        <path
           d="m 5,35 h 4 v 1 H 5 Z"
           fill="#278eed"
           id="path168" />
        <path
           d="M 10,8 H 37 V 36 H 10 Z"
           fill="#3da2ff"
           id="path170" />
        <path
           d="m 37,18 h 5 v 14 h -5 z"
           fill="#3da2ff"
           id="path172" />
        <path
           d="m 28,36 h 5 v 5 h -5 z"
           fill="#3da2ff"
           id="path174" />
        <path
           d="m 33,36 h 4 v 5 h -4 z"
           fill="#2e95f4"
           id="path176" />
        <path
           d="m 37,32 h 5 v 4 h -5 z"
           fill="#2e95f4"
           id="path178" />
        <path
           d="M 18,8 H 28 V 22 H 18 Z"
           fill="#57aaff"
           id="path180" />
        <path
           d="m 18,22 h 5 v 5 h -5 z"
           fill="#57aaff"
           id="path182" />
        <path
           d="m 33,8 h 4 v 10 h -4 z"
           fill="#4ba8ff"
           id="path184" />
        <path
           d="m 33,22 h 4 v 10 h -4 z"
           fill="#4ba8ff"
           id="path186" />
        <path
           d="m 28,27 h 5 v 9 h -5 z"
           fill="#4ba8ff"
           id="path188" />
        <path
           d="m 19,32 h 9 v 6 h -9 z"
           fill="#4ba8ff"
           id="path190" />
        <path
           d="m 9,41 h 5 v 4 H 9 Z"
           fill="#0d74d3"
           id="path192" />
        <path
           d="m 19,48 h 4 v 2 h -4 z"
           fill="#0d74d3"
           id="path194" />
        <path
           d="m 46,32 h 2 v 4 h -2 z"
           fill="#0d74d3"
           id="path196" />
        <path
           d="m 46,18 h 3 v 9 h -3 z"
           fill="#0d74d3"
           id="path198" />
        <path
           d="m 42,36 h 4 v 9 h -4 z"
           fill="#0d74d3"
           id="path200" />
        <path
           d="m 37,41 h 5 v 4 h -5 z"
           fill="#0d74d3"
           id="path202" />
        <path
           d="m 9,45 h 10 v 5 H 9 Z"
           fill="#014e96"
           id="path204" />
        <path
           d="m 19,50 h 18 v 5 H 19 Z"
           fill="#014e96"
           id="path206" />
        <path
           d="m 37,45 h 9 v 5 h -9 z"
           fill="#014e96"
           id="path208" />
        <path
           d="m 46,36 h 5 v 9 h -5 z"
           fill="#014e96"
           id="path210" />
        <path
           d="M 19,0 H 37 V 4 H 19 Z"
           fill="#0157a9"
           id="path212" />
        <path
           d="M 0,18 H 5 V 36 H 0 Z"
           fill="#0157a9"
           id="path214" />
        <path
           d="m 5,36 h 4 v 9 H 5 Z"
           fill="#0157a9"
           id="path216" />
        <path
           d="m 42,18 h 4 v 4 h -4 z"
           fill="#3198f7"
           id="path218" />
        <path
           d="m 51,38 v -2 h 5 v 2 h -1 v 1 h -1 v 1 h -2 v -2 z"
           fill="#132e2f"
           id="path220" />
      </g>
      <g
         id="land">
        <path
           d="m 19,38 h 9 v 3 h -9 z"
           fill="#6ec310"
           id="path223" />
        <path
           d="m 23,14 h 1 v 2 h -1 z"
           fill="#6ec310"
           id="path225" />
        <path
           d="m 24,8 h 3 v 2 h -3 z"
           fill="#6ec310"
           id="path227" />
        <path
           d="m 24,18 v -2 h 1 v 1 h 1 v 1 z"
           fill="#6ec310"
           id="path229" />
        <path
           d="M 14,13 V 8 h 8 v 2 h -1 v 1 h 1 v 2 z"
           fill="#6ec310"
           id="path231" />
        <path
           d="M 14,22 V 13 H 9 v 9 H 5 v 13 h 4 v 1 h 5 v -2 h -2 v -1 h -2 v -3 h 1 v -1 h 3 v 1 h 1 v 1 h 1 v -4 h 2 v -5 z"
           fill="#6ec310"
           id="path233" />
        <path
           d="m 19,45 v -4 h 15 v 4 z"
           fill="#57b10f"
           id="path235" />
        <path
           d="m 5,22 v -4 h 4 v 4 z"
           fill="#57b10f"
           id="path237" />
        <path
           d="M 9,13 V 8 h 5 v 5 z"
           fill="#57b10f"
           id="path239" />
        <path
           d="M 19,8 V 4 h 9 V 6 H 27 V 8 H 24 V 7 h -2 v 1 z"
           fill="#57b10f"
           id="path241" />
        <path
           d="m 9,37 v -1 h 5 v 1 h 2 v 2 h 1 v 1 h 2 v 1 h -3 v -1 h -1 v -1 h -3 v -2 z"
           fill="#58ae01"
           id="path243" />
        <path
           d="M 39,11 V 8 h 7 v 9 h -1 v -4 h -3 v -2 z"
           fill="#448001"
           id="path245" />
        <path
           d="m 49,18 h 2 v 18 h -3 v -4 h -2 v -5 h 3 z"
           fill="#448001"
           id="path247" />
        <path
           d="M 37,50 V 45 H 19 v 3 h 4 v 2 z"
           fill="#448001"
           id="path249" />
        <path
           d="M 9,8 V 4 H 19 V 8 H 9 V 18 H 5 V 8 Z"
           fill="#2a5401"
           id="path251" />
        <path
           d="M 37,8 V 4 h 9 v 4 h 5 v 10 h 5 V 36 H 51 V 18 H 46 V 8 Z"
           fill="#2a5401"
           id="path253" />
        <path
           d="m 26,51 v -1 h 8 v 1 h -1 v 3 h -1 v 1 h -3 v -2 h -2 v -2 z"
           fill="#2a5401"
           id="path255" />
        <path
           d="m 51,38 v -2 h -2 v 1 h 1 v 1 z"
           fill="#2a5401"
           id="path257" />
      </g>
      <g
         id="sun">
        <path
           d="m 14,22 v -9 h 9 v 9 z"
           fill="#ffffff"
           id="path260" />
      </g>
    </g>
  </g>
</svg>
