<?xml version="1.0" encoding="UTF-8" standalone="no"?>
<svg
   xmlns:dc="http://purl.org/dc/elements/1.1/"
   xmlns:cc="http://creativecommons.org/ns#"
   xmlns:rdf="http://www.w3.org/1999/02/22-rdf-syntax-ns#"
   xmlns:svg="http://www.w3.org/2000/svg"
   xmlns="http://www.w3.org/2000/svg"
   xmlns:sodipodi="http://sodipodi.sourceforge.net/DTD/sodipodi-0.dtd"
   xmlns:inkscape="http://www.inkscape.org/namespaces/inkscape"
   width="60"
   height="40"
   viewBox="0 0 15.874999 10.583333"
   version="1.1"
   id="svg8"
   inkscape:version="1.0.2-2 (e86c870879, 2021-01-15)"
   sodipodi:docname="youtube_icon.svg">
  <defs
     id="defs2">
    <filter
       style="color-interpolation-filters:sRGB"
       inkscape:label="Drop Shadow"
       id="filter6864">
      <feFlood
         flood-opacity="0.580392"
         flood-color="rgb(0,0,0)"
         result="flood"
         id="feFlood6854" />
      <feComposite
         in="flood"
         in2="SourceGraphic"
         operator="out"
         result="composite1"
         id="feComposite6856" />
      <feGaussianBlur
         in="composite1"
         stdDeviation="2.99401"
         result="blur"
         id="feGaussianBlur6858" />
      <feOffset
         dx="0"
         dy="-1.1976"
         result="offset"
         id="feOffset6860" />
      <feComposite
         in="offset"
         in2="SourceGraphic"
         operator="atop"
         result="composite2"
         id="feComposite6862" />
    </filter>
    <filter
       style="color-interpolation-filters:sRGB"
       inkscape:label="Drop Shadow"
       id="filter6876">
      <feFlood
         flood-opacity="0.580392"
         flood-color="rgb(0,0,0)"
         result="flood"
         id="feFlood6866" />
      <feComposite
         in="flood"
         in2="SourceGraphic"
         operator="out"
         result="composite1"
         id="feComposite6868" />
      <feGaussianBlur
         in="composite1"
         stdDeviation="2.99401"
         result="blur"
         id="feGaussianBlur6870" />
      <feOffset
         dx="0"
         dy="-1.1976"
         result="offset"
         id="feOffset6872" />
      <feComposite
         in="offset"
         in2="SourceGraphic"
         operator="atop"
         result="composite2"
         id="feComposite6874" />
    </filter>
    <filter
       style="color-interpolation-filters:sRGB"
       inkscape:label="Drop Shadow"
       id="filter6888">
      <feFlood
         flood-opacity="0.580392"
         flood-color="rgb(0,0,0)"
         result="flood"
         id="feFlood6878" />
      <feComposite
         in="flood"
         in2="SourceGraphic"
         operator="out"
         result="composite1"
         id="feComposite6880" />
      <feGaussianBlur
         in="composite1"
         stdDeviation="2.99401"
         result="blur"
         id="feGaussianBlur6882" />
      <feOffset
         dx="0"
         dy="-1.1976"
         result="offset"
         id="feOffset6884" />
      <feComposite
         in="offset"
         in2="SourceGraphic"
         operator="atop"
         result="composite2"
         id="feComposite6886" />
    </filter>
    <radialGradient
       id="paint0_radial_87_7153"
       cx="0"
       cy="0"
       r="1"
       gradientUnits="userSpaceOnUse"
       gradientTransform="matrix(14.500016,-20.999988,20.999988,14.500016,12,23)">
      <stop
         stop-color="#B13589"
         id="stop497" />
      <stop
         offset="0.79309"
         stop-color="#C62F94"
         id="stop499" />
      <stop
         offset="1"
         stop-color="#8A3AC8"
         id="stop501" />
    </radialGradient>
    <radialGradient
       id="paint1_radial_87_7153"
       cx="0"
       cy="0"
       r="1"
       gradientUnits="userSpaceOnUse"
       gradientTransform="matrix(9.4999814,-20.499957,20.499957,9.4999814,11,31)">
      <stop
         stop-color="#E0E8B7"
         id="stop504" />
      <stop
         offset="0.444662"
         stop-color="#FB8A2E"
         id="stop506" />
      <stop
         offset="0.71474"
         stop-color="#E2425C"
         id="stop508" />
      <stop
         offset="1"
         stop-color="#E2425C"
         stop-opacity="0"
         id="stop510" />
    </radialGradient>
    <radialGradient
       id="paint2_radial_87_7153"
       cx="0"
       cy="0"
       r="1"
       gradientUnits="userSpaceOnUse"
       gradientTransform="matrix(38.500027,-5.5000022,1.1763934,8.2347563,0.500002,3)">
      <stop
         offset="0.156701"
         stop-color="#406ADC"
         id="stop513" />
      <stop
         offset="0.467799"
         stop-color="#6A45BE"
         id="stop515" />
      <stop
         offset="1"
         stop-color="#6A45BE"
         stop-opacity="0"
         id="stop517" />
    </radialGradient>
    <filter
       style="color-interpolation-filters:sRGB"
       inkscape:label="Drop Shadow"
       id="filter6900">
      <feFlood
         flood-opacity="0.580392"
         flood-color="rgb(0,0,0)"
         result="flood"
         id="feFlood6890" />
      <feComposite
         in="flood"
         in2="SourceGraphic"
         operator="out"
         result="composite1"
         id="feComposite6892" />
      <feGaussianBlur
         in="composite1"
         stdDeviation="2.99401"
         result="blur"
         id="feGaussianBlur6894" />
      <feOffset
         dx="0"
         dy="-1.1976"
         result="offset"
         id="feOffset6896" />
      <feComposite
         in="offset"
         in2="SourceGraphic"
         operator="atop"
         result="composite2"
         id="feComposite6898" />
    </filter>
    <filter
       style="color-interpolation-filters:sRGB"
       inkscape:label="Drop Shadow"
       id="filter6912">
      <feFlood
         flood-opacity="0.580392"
         flood-color="rgb(0,0,0)"
         result="flood"
         id="feFlood6902" />
      <feComposite
         in="flood"
         in2="SourceGraphic"
         operator="out"
         result="composite1"
         id="feComposite6904" />
      <feGaussianBlur
         in="composite1"
         stdDeviation="2.99401"
         result="blur"
         id="feGaussianBlur6906" />
      <feOffset
         dx="0"
         dy="-1.1976"
         result="offset"
         id="feOffset6908" />
      <feComposite
         in="offset"
         in2="SourceGraphic"
         operator="atop"
         result="composite2"
         id="feComposite6910" />
    </filter>
  </defs>
  <sodipodi:namedview
     id="base"
     pagecolor="#ffffff"
     bordercolor="#666666"
     borderopacity="1.0"
     inkscape:pageopacity="0.0"
     inkscape:pageshadow="2"
     inkscape:zoom="11.313709"
     inkscape:cx="36.716377"
     inkscape:cy="24.429566"
     inkscape:document-units="mm"
     inkscape:current-layer="layer1"
     inkscape:document-rotation="0"
     showgrid="false"
     units="px"
     inkscape:window-width="1507"
     inkscape:window-height="1040"
     inkscape:window-x="2050"
     inkscape:window-y="0"
     inkscape:window-maximized="0" />
  <metadata
     id="metadata5">
    <rdf:RDF>
      <cc:Work
         rdf:about="">
        <dc:format>image/svg+xml</dc:format>
        <dc:type
           rdf:resource="http://purl.org/dc/dcmitype/StillImage" />
        <dc:title></dc:title>
      </cc:Work>
    </rdf:RDF>
  </metadata>
  <g
     inkscape:label="Livello 1"
     inkscape:groupmode="layer"
     id="layer1">
    <path
       style="fill:#ffffff;fill-opacity:1;stroke:none;stroke-width:0.00625078;stroke-miterlimit:4;stroke-dasharray:none;stroke-opacity:0.681648;paint-order:fill markers stroke"
       d="M 2.1358741,5.5448857 V 2.9197174 l 1.5634256,0.00103 1.5634229,0.00103 0.028596,0.03514 c 0.091834,0.112857 0.1365673,0.1973736 0.1640602,0.3099695 0.053737,0.2200587 0.066186,0.5796822 0.066191,1.9121173 2.6e-6,1.0228781 -0.00786,1.487787 -0.031115,1.8376138 -0.038918,0.5856843 -0.1196869,0.8339068 -0.3136477,0.9639357 -0.060177,0.040341 -0.1417267,0.077102 -0.214077,0.0965 -0.097679,0.026191 -0.3300228,0.050526 -0.6481789,0.067889 -0.3753115,0.020484 -0.6394053,0.024905 -1.4934486,0.025011 l -0.6852285,8.35e-5 z M 3.762715,7.3191802 C 3.824519,7.2976642 3.9534505,7.2126449 4.00143,7.1617706 4.1114358,7.0451232 4.1355394,6.8160274 4.1574151,5.6792499 4.1857391,4.2073749 4.1778941,3.8906795 4.1082921,3.6930511 4.0897181,3.640345 4.0679701,3.6003504 4.0312431,3.5514238 3.9350831,3.4233166 3.8250718,3.3522225 3.7337906,3.3591964 c -0.03738,0.00285 -0.054787,0.00827 -0.079362,0.024696 -0.074269,0.049634 -0.1012693,0.1971905 -0.1170384,0.6396429 -0.00212,0.060255 -0.00616,0.3541903 -0.00892,0.6531901 -0.00947,1.0257483 0.00841,2.1305943 0.0401,2.4763346 0.00915,0.099789 0.012621,0.1150054 0.030165,0.1317146 0.049371,0.047044 0.098235,0.057295 0.1639861,0.034404 z"
       id="path4088" />
    <path
       style="fill:#ffffff;fill-opacity:1;stroke:none;stroke-width:0.00625078;stroke-miterlimit:4;stroke-dasharray:none;stroke-opacity:0.681648;paint-order:fill markers stroke"
       d="M 6.2203793,5.544891 V 2.9197282 h 0.6965976 0.6965977 l -1.773e-4,0.036174 c -5.292e-4,0.1315003 0.042431,4.0937786 0.044783,4.1185423 l 0.00294,0.030936 0.4299479,0.027755 c 0.2364713,0.015264 0.4341336,0.027854 0.4392506,0.027975 l 0.00931,2.191e-4 V 7.6656912 8.1700531 H 7.380011 l -1.1596184,8e-7 z"
       id="path4092" />
    <path
       d="m -198.21784,27.37638 -0.003,-15.97904 15.30322,8.01706 z m 33.60127,-18.74796 c 0,0 -0.55401,-3.91877 -2.25142,-5.64446 C -169.02206,0.718 -171.4363,0.70733 -172.54254,0.57582 -180.4685,0 -192.35744,0 -192.35744,0 h -0.0248 c 0,0 -11.88894,0 -19.8149,0.57582 -1.10801,0.13151 -3.52049,0.14218 -5.67632,2.40814 -1.69741,1.72569 -2.24964,5.64446 -2.24964,5.64446 0,0 -0.5664,4.60302 -0.5664,9.20425 v 4.31511 c 0,4.60301 0.5664,9.20424 0.5664,9.20424 0,0 0.55223,3.91878 2.24964,5.64447 2.15583,2.26596 4.98603,2.19488 6.24625,2.43124 4.53115,0.4372 19.25736,0.57227 19.25736,0.57227 0,0 11.90133,-0.0178 19.8273,-0.59359 1.10623,-0.13329 3.52047,-0.14396 5.67454,-2.40992 1.69741,-1.72569 2.25142,-5.64447 2.25142,-5.64447 0,0 0.56639,-4.60123 0.56639,-9.20424 v -4.31511 c 0,-4.60123 -0.56639,-9.20425 -0.56639,-9.20425 z"
       id="Youtube"
       style="fill:#ce1312;fill-rule:evenodd;stroke:none;stroke-width:1.17823;filter:url(#filter6912)"
       transform="matrix(0.26458333,0,0,0.26444945,58.830306,0.00484058)" />
  </g>
</svg>
